<svg xmlns="http://www.w3.org/2000/svg" width="26" height="38">
    <path fill="#FFF" fill-rule="evenodd" d="M13.001 14.423c-3.36 0-6.084 4.946-6.084 9.71 0 4.763 2.724 7.542 6.084 7.542 3.36 0 6.084-2.779 6.084-7.542 0-4.764-2.724-9.71-6.084-9.71zm12.9 8.988c-.37-3.436-1.853-6.631-3.161-9.45-.381-.819-.74-1.594-1.051-2.329-.722-1.704-1.303-3.408-1.816-4.911-.929-2.726-1.601-4.695-2.688-5.629-.846-.727-1.752-1.096-2.692-1.096-.496 0-.994.108-1.471.316-.477-.208-.975-.316-1.471-.316-.94 0-1.846.369-2.692 1.096-1.108.952-1.786 2.935-2.726 5.68-.502 1.469-1.072 3.133-1.779 4.828-.296.707-.635 1.46-.995 2.257C2.062 16.734.591 19.994.147 23.382c-.534 4.079.398 7.614 2.696 10.222 2.836 3.217 7.067 4.377 10.107 4.393h.081c2.935 0 7.088-1.127 9.941-4.289 2.359-2.614 3.372-6.175 2.929-10.297zm-4.818 8.607c-2.273 2.519-5.699 3.43-7.978 3.45h-.167c-2.375-.02-5.912-.952-8.186-3.533-1.829-2.074-2.53-4.842-2.087-8.226.395-3.018 1.785-6.098 3.01-8.816.367-.813.714-1.581 1.023-2.322.74-1.771 1.323-3.478 1.839-4.982.686-2.006 1.395-4.08 1.98-4.583.372-.319.72-.481 1.034-.481.237 0 .488.09.745.27l.726.503.726-.503c.6-.416 1.127-.349 1.778.211.564.485 1.265 2.54 1.943 4.528.527 1.543 1.123 3.293 1.88 5.08.328.776.696 1.569 1.086 2.409 1.226 2.641 2.616 5.635 2.941 8.657.369 3.437-.402 6.242-2.293 8.338z"/>
</svg>
