<svg xmlns="http://www.w3.org/2000/svg" width="32" height="38">
    <path fill="#E3E9EA" fill-rule="evenodd" d="M29.031 10.224c-1.713-2.068-4.089-3.161-6.87-3.161-.143 0-.284.012-.426.016 4.124-1.782 4.476-5.133 4.476-5.133-5.406-.619-7.859 2.065-8.929 4.097-.193-1.905-.725-4.169-2.035-6.045l-2.086 1.465c.873 1.251 1.304 2.783 1.505 4.185-1.173-1.965-3.647-4.282-8.709-3.702 0 0 .353 3.361 4.495 5.142-.204-.011-.407-.025-.614-.025-2.78 0-5.156 1.093-6.869 3.161-4.436 5.354-3.871 12.491 1.549 19.583 1.721 2.25 3.348 4.057 3.597 4.331.369.459 3.25 3.861 7.429 3.861.093 0 .187-.002.28-.005h.352c.093.003.187.005.28.005 4.18 0 7.061-3.403 7.43-3.861.248-.274 1.875-2.08 3.596-4.331 5.42-7.092 5.985-14.229 1.549-19.583zm-7.578.815c.776 0 1.194.96.96 1.71-.27.868-.96 1.803-.96 1.803s-.697-.955-.958-1.83c-.22-.74.181-1.683.958-1.683zM4.625 14.688c.777 0 1.195.96.961 1.71-.27.868-.961 1.803-.961 1.803s-.697-.955-.957-1.829c-.221-.74.18-1.684.957-1.684zm1.598 9.404c-.271.868-.961 1.803-.961 1.803s-.696-.955-.957-1.83c-.221-.74.18-1.683.957-1.683.777 0 1.195.96.961 1.71zm3.494 5.072c-.27.867-.96 1.802-.96 1.802s-.697-.955-.958-1.83c-.221-.739.18-1.682.958-1.682.776 0 1.194.959.96 1.71zm.023-10.211c-.271.867-.961 1.802-.961 1.802s-.696-.954-.957-1.829c-.221-.74.18-1.683.957-1.683.777 0 1.195.959.961 1.71zm-.433-5.866c-.22-.74.181-1.683.958-1.683.776 0 1.194.96.96 1.71-.27.868-.96 1.803-.96 1.803s-.697-.955-.958-1.83zm1.259 11.454c-.221-.739.18-1.682.957-1.682.777 0 1.195.959.961 1.71-.27.867-.961 1.802-.961 1.802s-.696-.954-.957-1.83zm3.297 8.735c-.27.868-.961 1.803-.961 1.803s-.696-.955-.957-1.83c-.22-.74.181-1.683.957-1.683.777 0 1.195.96.961 1.71zm1.435-14.117c.777 0 1.194.959.961 1.71-.271.867-.961 1.802-.961 1.802s-.697-.954-.957-1.829c-.221-.74.179-1.683.957-1.683zm1.052 9.373c-.271.867-.961 1.802-.961 1.802s-.697-.954-.957-1.829c-.221-.74.179-1.683.957-1.683.777 0 1.194.96.961 1.71zm.606-14.141c-.27.868-.961 1.803-.961 1.803s-.696-.955-.957-1.83c-.22-.74.18-1.682.957-1.682.777 0 1.195.958.961 1.709zm2.062 18.489c-.271.868-.961 1.803-.961 1.803s-.696-.955-.957-1.829c-.221-.74.18-1.683.957-1.683.777 0 1.195.959.961 1.709zm1.425-8.605c-.27.867-.961 1.802-.961 1.802s-.696-.954-.957-1.829c-.22-.741.18-1.683.957-1.683.777 0 1.195.96.961 1.71zm2.759 5.504c-.271.868-.96 1.802-.96 1.802s-.697-.954-.958-1.829c-.221-.74.18-1.683.958-1.683.776 0 1.194.96.96 1.71zm.364-10.583c-.271.868-.961 1.802-.961 1.802s-.696-.954-.957-1.829c-.221-.74.18-1.683.957-1.683.777 0 1.195.96.961 1.71zm4.518 4.866c-.271.867-.961 1.802-.961 1.802s-.697-.954-.957-1.829c-.221-.74.179-1.683.957-1.683.777 0 1.194.959.961 1.71zm.333-7.664c-.27.868-.961 1.803-.961 1.803s-.696-.955-.957-1.829c-.22-.74.18-1.684.957-1.684.777 0 1.195.96.961 1.71z"/>
</svg>
