<svg xmlns="http://www.w3.org/2000/svg" width="32" height="32">
    <path fill="#E3E9EA" fill-rule="evenodd" d="M31.999 30.448v.003c0 .856-.671 1.549-1.5 1.549H1.501c-.829 0-1.5-.693-1.5-1.549v-.003H0s0-5.643 3.994-7.695c2.527-1.298 1.554-.245 4.656-1.573 3.103-1.326 3.838-1.79 3.838-1.79l.029-3.057s-1.162-.918-1.523-3.795c-.727.217-.967-.881-1.01-1.58-.039-.676-.421-2.785.466-2.595-.181-1.409-.311-2.679-.248-3.352C10.425 2.648 12.629.18 16.024 0c3.993.18 5.575 2.647 5.796 5.009.065.673-.077 1.944-.259 3.351.888-.188.502 1.918.459 2.594-.039.699-.285 1.793-1.01 1.577-.363 2.877-1.525 3.787-1.525 3.787l.027 3.042s.735.433 3.838 1.76c3.102 1.328 2.129.335 4.656 1.633C32 24.805 32 30.448 32 30.448h-.001z"/>
</svg>
