<svg xmlns="http://www.w3.org/2000/svg" width="19" height="19">
    <path fill="#FFF" fill-rule="evenodd" d="M18.975 9.655l.001.002c.006.033.011.066.015.1l.003.018c.003.034.005.068.005.103l.001.019c0 .294-.107.562-.283.769l-6.728 7.916v-.001c-.218.256-.542.419-.904.419-.039 0-.077-.002-.115-.006l-.08-.011-.027-.004c-.213-.041-.405-.138-.561-.275l-.002.002L.406 9.603l.004-.005c-.243-.213-.399-.521-.405-.869H0V1.19h.003C.003.534.535.003 1.19.003V0h7.517v.003h.003c.329 0 .626.134.841.35l9.092 8.696c.165.162.284.371.332.606zM3.169 1.586c-.874 0-1.583.709-1.583 1.583 0 .875.709 1.583 1.583 1.583s1.583-.708 1.583-1.583c0-.874-.709-1.583-1.583-1.583z"/>
</svg>
